<svg width="120" height="40" viewBox="0 0 120 40" xmlns="http://www.w3.org/2000/svg">
  <g fill="#008CFF">
    <!-- V -->
    <path d="M8 8h4.5l6 18L24 8h4.5l-8.5 24h-4L8 8z"/>
    <!-- e -->
    <path d="M35 18c0-2.5 1.8-4.5 4.5-4.5s4.5 2 4.5 4.5v1h-7c0 1.5 1 2.5 2.5 2.5 1 0 1.8-.5 2.2-1.2l1.8 1.2c-.8 1.5-2.5 2.5-4.5 2.5-3 0-5.5-2.5-5.5-5.5v-.5zm7-1c0-1.2-.8-2-2-2s-2 .8-2 2h4z"/>
    <!-- n -->
    <path d="M48 14v10h-2.5V14h-1.5v-2h1.5v-1c0-2.5 1.5-4 4-4 .8 0 1.5.2 2 .6l-.8 2c-.3-.2-.7-.3-1-.3-.8 0-1.2.5-1.2 1.2v1.5h2v2h-2z"/>
    <!-- m -->
    <path d="M55 14v10h-2.5V14.5c0-.8-.5-1.5-1.5-1.5s-1.5.7-1.5 1.5V24h-2.5V14.5c0-.8-.5-1.5-1.5-1.5s-1.5.7-1.5 1.5V24H42V12h2.5v1c.7-.8 1.8-1.2 3-1.2 1.2 0 2.2.5 2.8 1.3.8-.8 1.8-1.3 3.2-1.3 2.2 0 3.5 1.5 3.5 3.7V24H55v-10z"/>
    <!-- o -->
    <path d="M62 18c0-3 2.5-5.5 5.5-5.5s5.5 2.5 5.5 5.5-2.5 5.5-5.5 5.5S62 21 62 18zm8.5 0c0-1.8-1.2-3-2.5-3s-2.5 1.2-2.5 3 1.2 3 2.5 3 2.5-1.2 2.5-3z"/>
  </g>
</svg>
